<svg width="16" height="44" viewBox="0 0 16 44" fill="none" xmlns="http://www.w3.org/2000/svg">
<path d="M8.69112 9.44291C10.7531 8.82037 11.92 6.6441 11.2974 4.58212C10.6749 2.52014 8.49865 1.35326 6.43667 1.97581C4.37468 2.59835 3.2078 4.77459 3.83035 6.83657C4.4529 8.89855 6.62914 10.0655 8.69112 9.44291Z" fill="current"/>
<path d="M9.39999 19.1001L3.5 19.9001V39.0001C3.5 39.4001 3.7 39.8001 4 40.1001C5.7 41.4001 7.5 40.2001 7.5 38.6001V26.8001H8.29999V39.0001C8.29999 39.4001 8.49999 39.8001 8.79999 40.1001C10.5 41.4001 12.3 40.2001 12.3 38.6001V19.8001C12.1 19.8001 12 19.8001 11.8 19.8001L9.39999 19.1001Z" fill="current"/>
<path d="M13.4983 9.39999C13.2983 9.39999 12.9983 9.39999 12.7983 9.39999L10.5983 9.79999H5.2983L2.69833 9.39999C2.49833 9.39999 2.39833 9.39999 2.19833 9.39999C1.19833 9.49999 0.598326 10.4 0.698326 11.3L1.49831 17.7C1.59831 18.5 2.29832 19.2 3.09832 19.2C3.19832 19.2 3.29831 19.2 3.39831 19.2L7.89831 18.6L4.19833 17.6C2.99833 17.3 2.29832 16 2.59832 14.8C2.69832 14.3 2.99831 13.9 3.39831 13.6C3.39831 13.6 3.49832 13.5 3.59832 13.4C3.69832 13.4 3.79831 13.3 3.99831 13.2C4.09831 13.2 4.19831 13.2 4.39831 13.2L4.19833 11.9C4.19833 11.7 4.29831 11.5 4.49831 11.5C4.69831 11.5 4.89831 11.6 4.89831 11.8L5.09832 13.1C5.19832 13.1 5.29831 13.1 5.39831 13.1L10.3983 14.4L10.7983 11.6C10.7983 11.4 10.9983 11.3 11.1983 11.3C11.3983 11.3 11.4983 11.5 11.4983 11.7L11.0983 14.5V15L5.39831 13.5C4.49831 13.3 3.4983 13.8 3.2983 14.7C3.0983 15.6 3.59831 16.6 4.49831 16.8L12.0983 18.8C12.3983 18.8 12.6983 18.8 12.8983 18.8C13.5983 18.7 14.1983 18.1 14.2983 17.3L15.0983 10.9C15.1983 9.89999 14.4983 9.1 13.5983 9L13.4983 9.39999Z" fill="current"/>
</svg>
