<svg width="30" height="44" viewBox="0 0 30 44" fill="none" xmlns="http://www.w3.org/2000/svg">
<path d="M15.8161 9.04448C17.8781 8.42193 19.045 6.24567 18.4224 4.18369C17.7999 2.1217 15.6236 0.954819 13.5617 1.57737C11.4997 2.19992 10.3328 4.37615 10.9553 6.43813C11.5779 8.50011 13.7541 9.66703 15.8161 9.04448Z" fill="current"/>
<path d="M28.5985 1.29999C27.8985 0.699994 26.7985 0.900006 26.1985 1.50001L18.8984 9.10001C18.5984 9.40001 18.0985 9.60001 17.5985 9.60001H12.4984C11.9984 9.60001 11.5985 9.40001 11.1985 9.10001L3.79844 1.4C3.09844 0.7 1.99844 0.7 1.29844 1.4C0.598437 2.1 0.598437 3.2 1.29844 3.9L10.5985 13.9V39.1C10.5985 39.5 10.7985 39.9 11.0985 40.1C12.7985 41.4 14.6985 40.3 14.6985 38.6V26.7H15.4984V39C15.4984 39.4 15.6984 39.8 15.9984 40C17.6984 41.3 19.5985 40.2 19.5985 38.5V13.7L28.8984 3.70002C29.5984 2.90002 29.4985 1.70001 28.6985 1.10001L28.5985 1.29999Z" fill="current"/>
</svg>
