<svg width="22" height="44" viewBox="0 0 22 44" fill="none" xmlns="http://www.w3.org/2000/svg">
<path d="M12.0325 12.3774C14.0391 11.991 15.3526 10.0511 14.9661 8.0445C14.5797 6.03791 12.6398 4.72449 10.6332 5.1109C8.62664 5.4973 7.31325 7.43722 7.69966 9.44381C8.08606 11.4504 10.0259 12.7638 12.0325 12.3774Z" fill="current"/>
<path d="M20.5969 1.09982C19.6969 0.799823 18.6969 1.19982 18.3969 2.09982L16.0969 8.09982V8.2998C16.0969 8.2998 16.0969 8.39982 15.9969 8.49982L14.1969 13.0998L9.09688 12.8998C8.89688 12.8998 8.59687 12.8998 8.39687 12.8998L6.19689 13.2998C5.79689 13.2998 5.49689 13.5998 5.19689 13.8998L1.19689 19.2998C0.89689 19.7998 0.796872 20.2998 0.896872 20.7998C0.896872 20.7998 0.896872 20.8998 0.896872 20.9998C0.896872 20.9998 0.896872 20.9998 0.896872 21.0998C1.09687 21.2998 1.29688 21.5998 1.49688 21.6998L5.99688 24.1998C6.29688 24.3998 6.59687 24.3998 6.89687 24.3998V41.0998C6.79687 42.1998 7.69687 43.0998 8.79687 43.0998C9.89687 43.0998 10.7969 42.1998 10.7969 41.0998V29.3998H11.6969V41.0998C11.6969 42.1998 12.5969 43.0998 13.6969 43.0998C14.7969 43.0998 15.6969 42.1998 15.6969 41.0998V19.2998L17.3969 13.9998L19.1969 9.39981C19.1969 9.39981 19.1969 9.19982 19.1969 9.09982C19.1969 9.09982 19.1969 9.09982 19.1969 8.99982L21.4969 2.99982C21.7969 2.09982 21.3969 1.0998 20.4969 0.799805L20.5969 1.09982ZM4.79687 19.9998L6.89687 17.1998V20.1998H6.79687C6.49687 20.1998 6.19688 20.3998 6.09688 20.6998L4.79687 19.9998Z" fill="current"/>
</svg>
